<svg width="37" height="36" viewBox="0 0 37 36" fill="none" xmlns="http://www.w3.org/2000/svg">
<path d="M10.7104 9.324V5.859C10.7106 5.29959 10.933 4.76316 11.3286 4.36767C11.7243 3.97217 12.2608 3.75 12.8202 3.75H31.1007C31.6602 3.75 32.1969 3.97228 32.5925 4.36793C32.9882 4.76359 33.2104 5.30021 33.2104 5.85975V24.141C33.2102 24.7004 32.9879 25.2368 32.5923 25.6323C32.1966 26.0278 31.6601 26.25 31.1007 26.25H27.5982" stroke="#FAFAFA" stroke-width="2" stroke-linecap="round" stroke-linejoin="round"/>
<path d="M25.1015 9.75H6.8187C6.25942 9.7504 5.72318 9.97285 5.32785 10.3685C4.93252 10.7641 4.71045 11.3005 4.71045 11.8597V30.1402C4.71045 30.6998 4.93273 31.2364 5.32838 31.6321C5.72404 32.0277 6.26066 32.25 6.8202 32.25H25.1015C25.6609 32.2498 26.1973 32.0274 26.5928 31.6318C26.9883 31.2362 27.2105 30.6997 27.2105 30.1402V11.8605C27.2106 11.5834 27.1561 11.309 27.0501 11.0529C26.9441 10.7969 26.7887 10.5642 26.5928 10.3682C26.3969 10.1722 26.1643 10.0167 25.9082 9.91067C25.6522 9.8046 25.3778 9.75 25.1007 9.75H25.1015Z" stroke="#FAFAFA" stroke-width="2" stroke-linejoin="round"/>
</svg>
