<svg width="24" height="24" viewBox="0 0 24 24" fill="none" xmlns="http://www.w3.org/2000/svg">
<path d="M3 7.8C3 7.32261 3.18964 6.86477 3.52721 6.52721C3.86477 6.18964 4.32261 6 4.8 6H19.2C19.6774 6 20.1352 6.18964 20.4728 6.52721C20.8104 6.86477 21 7.32261 21 7.8V16.8C21 17.2774 20.8104 17.7352 20.4728 18.0728C20.1352 18.4104 19.6774 18.6 19.2 18.6H4.8C4.32261 18.6 3.86477 18.4104 3.52721 18.0728C3.18964 17.7352 3 17.2774 3 16.8V7.8Z" stroke="#3475B4" stroke-width="2" stroke-linecap="round" stroke-linejoin="round"/>
<path d="M11.9998 15C13.491 15 14.6998 13.7912 14.6998 12.3C14.6998 10.8088 13.491 9.60001 11.9998 9.60001C10.5086 9.60001 9.2998 10.8088 9.2998 12.3C9.2998 13.7912 10.5086 15 11.9998 15Z" stroke="#3475B4" stroke-width="2" stroke-linecap="round" stroke-linejoin="round"/>
<path d="M3 9.6C3.95478 9.6 4.87045 9.22072 5.54558 8.54558C6.22072 7.87045 6.6 6.95478 6.6 6" stroke="#3475B4" stroke-width="2" stroke-linecap="round" stroke-linejoin="round"/>
<path d="M17.3999 18.6C17.3999 17.6452 17.7792 16.7295 18.4543 16.0544C19.1294 15.3793 20.0451 15 20.9999 15" stroke="#3475B4" stroke-width="2" stroke-linecap="round" stroke-linejoin="round"/>
</svg>
