<svg width="24" height="24" viewBox="0 0 24 24" fill="none" xmlns="http://www.w3.org/2000/svg">
<path d="M4.39474 18.1579V18.6579H4.89474H9.63158C9.75023 18.6579 9.86402 18.705 9.94792 18.7889C10.0318 18.8728 10.0789 18.9866 10.0789 19.1053C10.0789 19.2239 10.0318 19.3377 9.94792 19.4216C9.86402 19.5055 9.75023 19.5526 9.63158 19.5526H4.89474C4.52483 19.5526 4.17007 19.4057 3.90851 19.1441C3.64694 18.8826 3.5 18.5278 3.5 18.1579V4.89474C3.5 4.52483 3.64695 4.17007 3.90851 3.90851C4.17007 3.64695 4.52483 3.5 4.89474 3.5H9.63158C9.75023 3.5 9.86402 3.54713 9.94792 3.63103C10.0318 3.71493 10.0789 3.82872 10.0789 3.94737C10.0789 4.06602 10.0318 4.17981 9.94792 4.26371C9.86402 4.3476 9.75023 4.39474 9.63158 4.39474H4.89474H4.39474V4.89474V18.1579Z" fill="#424242" stroke="#F35858"/>
<path d="M15.9505 14.9959L18.1192 12.8272L18.9728 11.9737H17.7657H8.68418C8.56554 11.9737 8.45175 11.9266 8.36785 11.8427C8.28395 11.7588 8.23682 11.645 8.23682 11.5263C8.23682 11.4077 8.28395 11.2939 8.36785 11.21C8.45175 11.1261 8.56554 11.0789 8.68418 11.0789H17.7657H18.9728L18.1192 10.2254L15.9469 8.05308L15.9469 8.05302L15.9407 8.04699C15.898 8.00572 15.8639 7.95636 15.8404 7.90177C15.817 7.84719 15.8047 7.78849 15.8041 7.72909C15.8036 7.66969 15.8149 7.61078 15.8374 7.5558C15.8599 7.50082 15.8931 7.45087 15.9352 7.40886C15.9772 7.36686 16.0271 7.33364 16.0821 7.31115C16.1371 7.28865 16.196 7.27733 16.2554 7.27785C16.3148 7.27837 16.3735 7.29071 16.4281 7.31415C16.4826 7.3376 16.532 7.37168 16.5733 7.41441L16.5732 7.41446L16.5794 7.42061L20.3688 11.2101L20.3693 11.2106C20.4527 11.2937 20.4996 11.4064 20.5 11.5241C20.5 11.5242 20.5 11.5243 20.5 11.5245V11.5284C20.5 11.5286 20.5 11.5287 20.5 11.5289C20.4997 11.6443 20.4544 11.7551 20.3737 11.8377L20.3688 11.8426L16.583 15.6284C16.4989 15.7083 16.387 15.7525 16.2709 15.7515C16.1536 15.7505 16.0414 15.7034 15.9584 15.6205C15.8755 15.5375 15.8284 15.4253 15.8274 15.308C15.8264 15.1919 15.8706 15.08 15.9505 14.9959Z" fill="#424242" stroke="#F35858"/>
</svg>
