<svg width="406" height="372" viewBox="0 0 406 372" fill="none" xmlns="http://www.w3.org/2000/svg">
<g clip-path="url(#clip0_1_1910)">
<path d="M168.768 191.396C154.962 194.898 44.851 243.619 31.9816 249.699L43.6265 254.711C58.3567 249.555 169.74 200.498 184.47 195.341L168.78 191.396H168.768Z" fill="#DFEEF5"/>
<path d="M246.657 173.349L289.827 153.611C308.639 145.013 327.511 136.379 345.002 125.371C362.506 114.363 378.7 100.824 390.561 83.8925C391.762 82.1657 392.963 80.319 393.143 78.2205C393.599 73.1361 388.281 69.6586 383.695 67.4042C375.807 63.5309 367.668 59.5737 358.892 58.9861C352.169 58.5305 345.47 60.0774 339.024 62.02C331.917 64.1545 324.966 66.7686 318.015 69.3708C315.025 70.498 311.784 71.817 310.211 74.5991C307.858 78.7601 310.56 84.2642 314.593 86.8424C316.022 87.7537 317.691 88.5092 318.555 89.9721C320.344 92.994 317.607 96.7234 314.677 98.678C310.704 101.328 305.986 102.875 301.208 103.103C296.394 103.331 291.616 102.227 286.802 102.084C278.794 101.844 270.379 104.53 265.204 110.633C260.018 116.737 258.998 126.522 264.064 132.734C266.465 135.684 270.295 138.538 269.466 142.243C268.638 145.936 264.004 146.908 260.39 148.035C250.33 151.177 221.782 178.313 215.755 186.947L246.645 173.349H246.657Z" fill="#DFEEF5"/>
<path d="M306.406 318.254C307.222 318.134 307.294 319.417 306.994 320.185L304.425 326.72C304.089 327.584 303.729 328.471 303.068 329.106C302.396 329.754 301.472 330.078 300.571 330.342C297.39 331.313 294.101 331.948 290.787 332.248C289.611 332.356 288.206 332.56 287.714 333.639C287.558 333.987 287.522 334.383 287.294 334.694C287.042 335.066 286.585 335.222 286.165 335.366L275.217 339.119C273.428 339.731 271.567 340.354 269.682 340.223C267.858 340.091 245.312 337.045 235.696 332.272L219.657 166.874C221.242 173.673 229.189 179.489 232.671 185.544C240.606 199.371 241.266 216.039 245.672 231.364C247.113 236.364 248.962 241.245 250.186 246.293C251.303 250.862 251.903 255.563 251.975 260.263" fill="#3D86C7"/>
<path d="M239.537 371.101C239.537 371.101 231.518 367.551 227.664 368.87C218.3 372.036 199.368 367.455 192.802 367.143C174.506 362.958 151.66 355.068 129.451 346.866C110.627 339.911 99.138 332.728 84.3477 327.416C81.7426 323.087 84.1917 317.619 86.4366 313.074C94.9722 294.451 95.5245 295.302 93.9518 274.557C92.3311 264.856 99.6902 247.648 98.9339 237.839C97.5413 229.961 102.295 205.858 94.1799 203.172C85.5362 200.33 73.8793 208.772 64.3112 201.193C48.2004 188.41 30.5769 176.155 24.9586 166.958C24.9586 166.958 33.6142 120.047 48.9807 122.241C56.3519 123.296 73.8193 138.046 82.595 139.593C88.1173 140.552 96.6769 135.828 100.459 132.458C106.389 126.534 111.659 119.028 120.675 118.152C130.987 115.598 142.128 110.19 152.657 114.531C152.657 114.531 155.79 115.394 160.796 117.265C161.745 117.625 162.777 118.02 163.869 118.452C165.598 119.135 167.507 119.939 169.5 120.826C170.16 121.114 170.82 121.414 171.493 121.738C172.249 122.085 173.029 122.457 173.822 122.841C174.422 123.129 175.034 123.428 175.646 123.752C177.075 124.448 178.528 125.215 180.004 126.019C181.493 126.81 183.006 127.673 184.518 128.573C185.262 129.016 193.222 125.947 193.618 125.167C200.305 112.204 218.685 143.262 223.583 149.522C224.303 150.253 226.224 152.436 226.56 153.263V153.287L218.096 160.242C217.496 160.422 216.872 160.602 216.272 160.794C215.323 161.094 214.327 161.417 213.45 161.861C214.987 164.643 220.065 160.926 222.058 168.169C222.226 168.576 222.394 168.984 222.538 169.392C222.85 170.159 223.127 170.951 223.391 171.73C223.511 172.102 223.643 172.474 223.763 172.845C223.943 173.409 224.123 173.985 224.291 174.56C230.39 195.977 235.576 214.012 238.841 236.064C238.865 236.616 238.901 237.156 238.925 237.683C240.21 264.376 231.422 290.662 235.528 317.391C236.74 332.008 238.193 352.034 239.261 367.695V367.767C239.357 369.386 239.465 369.59 239.561 371.113L239.537 371.101Z" fill="#3D86C7"/>
<path d="M225.564 160.17C224.015 162.377 223.031 166.562 221.446 168.732C219.321 171.622 217.484 174.692 215.972 177.918C215.972 177.918 214.975 173.577 214.747 171.346C215.035 168.001 213.811 165.231 212.142 162.233C213.09 161.741 214.171 161.082 215.191 160.746C215.851 160.542 226.476 152.999 226.476 152.999C226.548 153.251 229.069 155.194 225.564 160.17Z" fill="#2A6498"/>
<path d="M224.435 168.528C224.255 167.749 223.979 166.934 223.895 166.13L222.862 167.737L220.185 167.125C220.906 168.744 221.23 170.699 221.818 172.378C223.475 177.102 224.687 182.007 226.044 186.815C228.721 196.337 231.29 205.894 233.439 215.547C234.531 220.464 235.516 225.392 236.368 230.357C236.932 233.642 237.533 236.892 237.605 240.226C237.689 243.895 237.509 247.564 237.209 251.222C236.512 259.64 235.252 268.01 234.387 276.404C233.175 288.179 232.623 300.003 232.803 311.839C233.067 329.334 234.735 346.782 237.197 364.098C237.533 366.424 237.869 368.75 238.229 371.077C238.493 372.803 242.203 371.868 241.939 370.081C239.249 352.202 237.197 334.215 236.668 316.132C236.308 303.816 236.692 291.501 237.845 279.234C238.661 270.576 239.922 261.966 240.762 253.308C241.122 249.615 241.374 245.921 241.398 242.204C241.434 235.273 240.018 228.486 238.673 221.711C236.752 212.034 234.351 202.452 231.746 192.943C230.402 188.027 229.021 183.134 227.616 178.23C226.656 174.848 225.408 171.562 224.495 168.181C224.315 167.509 224.195 166.754 223.907 166.106C223.475 165.135 222.094 164.979 221.23 165.495C220.581 165.878 220.125 166.322 220.197 167.101C220.269 167.881 220.557 168.72 220.738 169.5C221.146 171.226 224.855 170.255 224.447 168.504L224.435 168.528Z" fill="#2A6498"/>
<path d="M184.194 60.2213C183.738 57.9909 179.296 63.387 178.251 61.3605C176.823 58.5904 171.721 57.4033 168.84 56.2281C165.958 55.0529 158.551 57.3673 159.968 64.9579C160.388 67.2243 161.973 69.095 163.053 71.1215C165.958 76.5177 165.718 85.6073 173.221 86.0989C173.654 86.1229 174.002 86.5306 174.194 86.9143C174.338 87.2021 174.314 87.5499 174.302 87.8736C173.942 94.1212 173.642 106.173 165.646 114.842C157.315 123.872 200.701 140.552 202.082 141.751C205.023 144.306 199.669 153.827 202.61 156.369C204.002 157.58 206.271 165.854 208.12 165.902C207.784 163.516 211.986 146.152 211.878 143.754C211.71 139.737 210.209 136.451 210.065 132.422C209.981 129.988 210.761 128.297 212.034 126.222C213.294 124.136 214.303 120.934 215.407 119.471C238.913 88.4492 184.23 60.2093 184.23 60.2093L184.194 60.2213Z" fill="#EDA04C"/>
<path d="M188.852 102.599C192.538 111.101 203.99 113.811 211.998 118.716C215.155 120.646 219.009 121.258 222.706 121.378C226.404 121.498 230.222 120.55 233.103 118.224C239.814 112.804 240.654 104.17 245.264 95.7281C246.668 93.1499 251.29 83.4368 249.742 78.7601C248.145 73.9155 246.741 72.9562 247.893 67.9917C248.493 65.4016 249.754 62.9913 250.174 60.3652C250.63 57.4872 250.042 54.5733 249.754 51.6833C249.298 47.0786 249.622 42.4019 248.721 37.8691C247.557 32.0652 244.327 26.6811 239.754 22.9277C239.754 22.9277 211.506 -3.38161 185.743 21.3448C159.8 61.3245 199.921 76.9973 188.864 102.611L188.852 102.599Z" fill="#F9BA72"/>
<path d="M187.7 102.899C191.625 111.617 202.274 114.159 209.897 118.524C212.166 119.819 214.327 120.85 216.908 121.366C219.489 121.881 222.442 122.097 225.167 121.798C230.462 121.198 234.94 118.44 237.917 114.039C240.894 109.638 242.311 104.494 244.388 99.6972C246.068 95.824 248.205 92.2265 249.61 88.2214C250.342 86.1468 250.966 83.9884 251.146 81.7939C251.326 79.5995 250.69 77.7648 249.874 75.7023C249.058 73.6397 248.397 71.6491 248.733 69.3228C249.178 66.253 250.714 63.4829 251.266 60.4371C251.903 56.8516 250.99 53.2062 250.762 49.6328C250.534 46.0593 250.642 42.1141 250.018 38.3967C248.973 32.1851 245.648 26.5252 240.822 22.496C240.282 22.0403 238.181 22.9277 238.673 23.3354C242.779 26.765 245.78 31.3577 247.185 36.5261C248.757 42.3539 248.205 48.6135 248.913 54.5852C249.31 57.9429 249.166 60.9048 248.061 64.1065C247.233 66.4928 246.308 68.9151 246.332 71.4813C246.332 73.4958 247.209 75.2946 247.917 77.1412C248.685 79.1558 249.082 80.8586 248.793 83.0171C248.265 86.9023 246.705 90.6916 245 94.2051C244.159 95.9319 243.211 97.6107 242.431 99.3615C241.338 101.796 240.426 104.302 239.441 106.784C237.617 111.401 235.3 116.437 230.834 119.075C226.128 121.858 219.045 121.258 214.255 118.932C211.986 117.828 209.849 116.461 207.58 115.358C205.311 114.255 202.922 113.176 200.641 111.989C196.331 109.734 192.057 106.868 190.005 102.287C189.704 101.616 187.459 102.347 187.712 102.899H187.7Z" fill="#EF7C36"/>
<path d="M179.44 75.4385C179.476 75.8102 179.524 76.2179 179.776 76.5057C180.1 76.8654 180.641 76.9014 181.133 76.9014L185.659 76.9734C183.762 71.6611 184.338 57.1275 184.89 55.7005C185.286 54.6692 185.923 53.7339 186.319 52.7026C188.744 46.3711 181.505 39.5839 183.306 33.0366C183.846 31.0939 185.13 29.4511 186.439 27.9042C189.68 24.0909 193.426 20.4215 198.168 18.8027C204.134 16.7761 210.869 18.383 216.272 21.6446C218.721 23.1196 221.842 24.6305 224.411 25.8896C226.668 27.0048 232.623 27.7483 235.084 27.2327C238.433 26.5372 237.281 26.789 240.654 25.7577C241.314 25.5539 244.592 28.5877 244.075 27.0768C243.655 25.8297 247.101 21.2969 245.156 16.2005C244.255 13.8382 235.696 7.8904 231.074 6.13964L231.542 8.3101C230.918 8.99362 229.873 8.11824 229.333 7.36277C227.472 4.76062 224.819 2.73406 221.806 1.63084C222.034 3.12978 221.614 4.71266 220.665 5.88782C217.928 1.73877 212.406 0.683515 207.472 0C208.348 0.707498 209.213 2.09851 208.324 2.79402C207.628 3.34563 206.644 2.75804 205.899 2.26639C203.63 0.779447 200.761 0.215847 198.096 0.731481C198.36 2.05054 198.252 3.44156 197.784 4.71266C194.554 3.74134 191.109 3.47753 187.772 3.96918C187.387 4.02914 186.979 4.11308 186.727 4.41287C186.343 4.88054 186.607 5.58803 186.499 6.18761C186.235 7.83044 183.894 7.78248 182.225 7.62659C179.692 7.37477 177.087 7.93837 174.878 9.19747C174.242 9.55722 173.582 10.0729 173.522 10.8043C173.461 11.5838 174.122 12.2193 174.734 12.723C175.658 13.4904 175.238 14.3178 174.974 15.1572C174.566 16.4643 165.478 23.6952 163.905 30.7582C162.429 37.4134 161.636 44.3805 163.401 50.9638C163.785 52.4028 164.122 54.0576 165.166 55.2088C165.79 55.8923 166.619 56.348 167.459 56.7317C170.856 58.2547 174.002 58.7223 176.223 61.7202C178.203 64.3943 179.296 73.9515 179.416 75.4744L179.44 75.4385Z" fill="#2A6498"/>
<path d="M222.034 83.0411C220.834 83.4248 219.609 83.6766 218.349 83.7246C217.496 83.7606 216.632 83.4848 215.827 83.5087C215.299 83.5207 216.02 83.4368 215.587 83.6526C214.627 84.1323 215.455 83.7965 215.683 83.8085C216.716 83.8565 217.688 83.9045 218.721 84.0843C223.043 84.8518 227.412 86.1229 231.494 83.7486C234.675 81.8899 236.32 78.2085 234.411 74.8029C232.683 71.7211 230.053 69.2269 228.325 66.1211C227.508 64.6581 226.752 62.9793 226.932 61.2645C227.064 60.0414 227.304 58.8063 227.496 57.5951C227.688 56.384 223.895 57.0195 223.727 58.1467C223.547 59.3339 223.343 60.5211 223.187 61.7082C222.994 63.2311 223.331 64.6222 223.967 66.0012C225.612 69.5866 228.517 72.2967 230.534 75.6423C231.422 77.1293 231.722 78.952 231.098 80.5948C230.378 82.4775 228.817 83.4008 226.872 83.2449C222.37 82.8852 217.736 80.6668 213.342 82.8372C212.826 83.089 211.686 83.6646 211.89 84.4441C212.058 85.1276 213.222 85.3075 213.787 85.4154C216.62 85.955 219.777 85.4634 222.49 84.612C222.958 84.4681 224.363 84.0364 224.171 83.3049C223.979 82.5734 222.478 82.8852 222.058 83.0171L222.034 83.0411Z" fill="#EF914B"/>
<path d="M229.705 98.1504C220.113 99.4814 213.594 98.678 211.326 96.8193C209.057 94.9606 206.067 92.97 205.467 91.0994C209.549 93.6655 228.913 92.8261 228.913 92.8261L229.717 98.1504H229.705Z" fill="#EDEDED"/>
<path d="M230.065 97.3709C225.552 97.9825 220.642 98.4621 216.152 97.4069C214.747 97.0711 213.703 96.5435 212.586 95.6561C210.833 94.2531 208.276 92.7782 207.448 90.5837L203.618 91.7949C205.287 92.8022 207.412 93.03 209.297 93.2698C211.962 93.6056 214.651 93.7135 217.328 93.7735C220.906 93.8574 224.495 93.8334 228.073 93.6775L226.944 93.3658L227.749 98.69C227.881 99.5654 231.866 98.714 231.698 97.6347L230.894 92.3105C230.834 91.9148 229.993 91.9867 229.765 91.9987C226.56 92.1306 223.343 92.1666 220.137 92.0947C217.604 92.0467 215.071 91.9388 212.562 91.663C210.869 91.4831 208.841 91.3272 207.34 90.4159C206.752 90.0561 203.114 90.6077 203.51 91.627C204.399 93.9773 207.016 95.5242 208.889 97.0232C210.197 98.0664 211.542 98.678 213.174 99.0377C218.445 100.201 224.087 99.6493 229.381 98.9298C229.921 98.8579 231.578 98.4861 231.686 97.8146C231.806 97.0831 230.45 97.311 230.09 97.3589L230.065 97.3709Z" fill="#2A6498"/>
<path d="M173.353 62.8114C172.009 62.1519 170.772 61.3964 169.212 61.6243C168.251 61.7681 167.279 62.0679 166.499 62.6555C165.286 63.5669 164.878 64.862 164.986 66.3249C165.19 69.083 166.811 71.793 168.203 74.1074C168.719 74.9708 169.284 75.8102 169.836 76.6496C170.688 77.9447 174.338 76.5776 173.329 75.0427C172.945 74.4671 172.561 73.8915 172.201 73.304C171.901 72.8243 171.613 72.3446 171.325 71.853C171.181 71.6132 171.048 71.3613 170.904 71.1215C170.82 70.9776 170.748 70.8337 170.664 70.6898C170.628 70.6179 170.436 70.2701 170.52 70.426C169.944 69.2988 169.416 68.1116 169.068 66.8885C168.924 66.3729 168.816 65.8453 168.779 65.3056C168.804 65.5575 168.779 65.3056 168.779 65.1977C168.779 65.0778 168.779 64.9579 168.804 64.838C168.804 64.742 168.84 64.6341 168.852 64.5382C168.888 64.3583 168.984 64.2144 168.852 64.4662C168.9 64.3583 168.96 64.2504 169.008 64.1425C169.116 63.8787 168.78 64.3703 169.032 64.1065C169.308 63.8187 168.804 64.2864 169.008 64.1185C169.356 63.8187 168.683 64.3223 169.008 64.1185C169.332 63.9146 168.575 64.2744 168.984 64.1305C169.068 64.1065 169.308 64.0825 168.984 64.1305C168.611 64.1784 169.008 64.1185 169.068 64.1305H168.888C168.695 64.0825 168.659 64.0825 168.779 64.1065C168.84 64.2024 169.128 64.2744 169.236 64.3223L170.364 64.8739C171.217 65.2936 172.297 65.1497 173.077 64.5981C173.606 64.2264 174.194 63.2311 173.329 62.8114H173.353Z" fill="#EF7C36"/>
<path d="M155.79 112.828C160.424 110.49 164.722 106.988 169.584 105.309C178.252 112.192 187.724 119.231 195.455 127.326C210.125 142.027 201.577 140.732 192.273 153.875C184.95 145.421 176.103 138.274 169.884 128.789C165.514 123.081 160.712 117.193 153.953 114.723L155.802 112.828H155.79Z" fill="#3D86C7"/>
<path d="M156.894 113.176C161.408 110.861 165.454 107.576 170.256 105.849L167.843 105.981C176.895 113.164 186.019 120.155 194.122 128.417C196.775 131.127 200.365 134.341 201.313 138.19C201.914 140.612 200.557 142.519 199.02 144.246C196.139 147.471 193.09 150.433 190.557 153.959L193.99 153.215C187.7 145.996 180.364 139.725 174.482 132.146C169.032 125.131 164.158 117.253 155.442 113.943L155.634 114.639L157.483 112.744C158.083 112.12 156.955 111.965 156.558 111.977C155.742 111.989 154.674 112.3 154.085 112.9L152.236 114.795C151.948 115.082 152.08 115.358 152.429 115.49C161.096 118.776 165.886 126.954 171.325 133.861C177.159 141.26 184.338 147.435 190.509 154.522C191.121 155.218 193.486 154.426 193.942 153.779C196.691 149.942 200.185 146.848 203.138 143.202C205.215 140.648 205.767 138.046 204.146 135.072C202.934 132.842 201.193 130.887 199.477 129.04C197.015 126.39 194.446 123.836 191.781 121.402C186.451 116.509 180.737 112.06 175.046 107.6C174.206 106.94 173.365 106.281 172.537 105.621C171.817 105.057 171.289 104.434 170.328 104.446C168.599 104.47 166.643 105.609 165.13 106.377C161.528 108.211 158.251 110.61 154.662 112.456C154.145 112.72 153.581 113.188 154.253 113.583C154.926 113.979 156.282 113.451 156.858 113.152L156.894 113.176Z" fill="#2A6498"/>
<path d="M215.263 196.289C214.987 190.401 214.651 184.549 213.462 178.769C212.886 176.011 212.226 173.229 212.178 170.399C212.142 167.857 212.538 164.355 215.047 163C215.503 162.748 216.164 162.365 215.491 162.005C214.891 161.681 213.426 162.185 212.898 162.473C210.521 163.756 209.225 165.507 208.72 168.193C208.132 171.31 208.648 174.476 209.273 177.546C210.617 184.117 211.242 190.605 211.542 197.296C211.578 197.979 215.299 197.368 215.251 196.301L215.263 196.289Z" fill="#2A6498"/>
<path d="M201.421 140.073C201.589 142.915 200.629 145.601 200.101 148.359C199.573 151.117 199.681 153.671 200.617 156.273C201.553 158.875 203.138 161.393 204.567 163.852C205.275 165.075 206.031 166.274 206.596 167.569C207.16 168.864 207.568 170.123 208.24 171.346C208.913 172.57 212.502 171.382 211.95 170.351C211.29 169.14 210.857 167.845 210.305 166.574C209.753 165.303 208.985 164.08 208.276 162.856C206.848 160.398 205.299 157.964 204.327 155.278C203.306 152.46 203.378 149.786 204.014 146.884C204.591 144.282 205.287 141.763 205.131 139.077C205.059 137.902 201.337 138.646 201.421 140.073Z" fill="#2A6498"/>
<path d="M213.522 196.696L213.679 207.369C213.715 209.959 213.751 212.585 214.363 215.115C215.491 219.804 218.529 223.977 219.021 228.774C219.417 232.575 218.168 236.34 217.88 240.154C217.712 242.348 217.868 244.59 217.352 246.737C216.8 249.075 215.467 251.246 215.407 253.656C215.347 255.982 216.464 258.153 217.088 260.383C218.853 266.667 216.14 294.103 215.143 300.555C213.775 309.44 222.838 340.558 225.756 358.713" fill="#3D86C7"/>
<path d="M211.674 197.188C211.734 201.301 211.746 205.414 211.854 209.527C211.95 213.269 212.61 216.626 214.075 220.08C215.407 223.222 216.98 226.339 217.208 229.805C217.46 233.546 216.248 237.204 216.008 240.921C215.875 242.876 215.996 244.866 215.587 246.785C215.215 248.572 214.375 250.202 213.907 251.953C212.994 255.371 214.627 258.069 215.359 261.319C216.128 264.736 215.875 268.501 215.767 271.979C215.503 280.973 214.735 289.99 213.595 298.924C213.21 301.922 213.114 304.692 213.462 307.714C214.015 312.522 214.999 317.283 215.996 322.019C218.613 334.419 221.89 346.698 223.907 359.217C224.039 359.997 227.773 359.193 227.616 358.222C225.828 347.13 223.031 336.217 220.617 325.257C219.489 320.125 218.385 314.98 217.592 309.776C217.088 306.502 216.584 303.097 217.052 299.787C218.252 291.405 218.937 282.915 219.345 274.461C219.537 270.396 219.753 266.259 219.345 262.194C219.117 259.94 218.192 257.961 217.628 255.778C217.136 253.884 217.256 252.193 217.868 250.334C218.421 248.668 219.129 247.085 219.393 245.334C219.705 243.271 219.585 241.173 219.789 239.11C219.993 237.048 220.413 235.141 220.69 233.151C221.278 228.894 220.473 225.308 218.793 221.399C217.112 217.49 215.827 214.096 215.623 209.935C215.395 205.366 215.455 200.774 215.395 196.205C215.395 195.557 211.674 196.121 211.686 197.2L211.674 197.188Z" fill="#2A6498"/>
<path d="M303.212 327.272C302.036 328.351 300.319 328.507 298.735 328.615C294.533 328.891 290.151 329.13 286.309 327.44C282.468 325.737 279.418 321.444 280.607 317.415C281.171 315.496 282.576 313.949 283.932 312.486C284.232 312.162 284.557 311.815 284.989 311.719C285.325 311.635 285.685 311.719 286.033 311.791L304.617 316.036C306.454 316.455 309.311 316.887 309.311 318.77C309.311 321.108 303.993 326.564 303.212 327.284V327.272Z" fill="#2A6498"/>
<path d="M302.012 326.528C301.172 327.224 300.211 327.284 299.143 327.356C297.882 327.452 296.634 327.524 295.373 327.56C292.84 327.62 290.223 327.44 287.858 326.468C283.968 324.861 280.739 320.197 282.984 316.096C283.512 315.112 284.244 314.285 284.989 313.458C285.493 312.906 285.349 313.002 286.033 313.194C286.837 313.434 287.678 313.565 288.494 313.757L296.694 315.628C299.239 316.216 301.796 316.791 304.341 317.367C305.517 317.631 307.822 317.93 307.33 319.609C306.874 321.156 305.517 322.607 304.497 323.794C303.609 324.837 302.684 325.869 301.688 326.804C301.052 327.392 301.4 328.171 302.12 328.435C303.008 328.747 304.089 328.339 304.737 327.727C305.938 326.6 307.042 325.353 308.086 324.082C309.239 322.667 310.68 321 311.1 319.166C311.628 316.803 309.275 315.736 307.39 315.244C304.305 314.441 301.16 313.817 298.05 313.11C294.497 312.294 290.955 311.443 287.39 310.676C285.805 310.34 284.34 310.34 283.032 311.407C281.891 312.33 280.907 313.601 280.067 314.801C276.753 319.585 279.274 325.461 284.112 328.075C287.27 329.778 290.931 330.102 294.461 330.042C297.69 329.994 301.76 330.162 304.401 328.003C306.346 326.42 303.332 325.425 302 326.516L302.012 326.528Z" fill="#2A6498"/>
<path d="M40.4812 95.6441C33.3741 77.6689 41.6457 53.566 27.7198 38.7205C22.1254 34.4875 14.6222 42.9175 17.2753 48.7454C19.3402 54.8251 18.6559 70.498 20.7808 79.7314C21.285 81.9258 18.5839 83.9884 19.1361 86.1708C23.2659 92.2265 32.3057 93.9773 39.0405 96.0638" fill="#EDA04C"/>
<path d="M23.638 160.758C24.7545 163.492 25.895 167.209 28.7522 167.953C33.4582 169.164 40.7813 169.764 43.9986 166.13C48.8367 160.662 49.8931 155.47 50.7215 148.215C51.5498 140.972 54.6111 127.014 49.0168 123.62C45.5593 121.522 21.201 123.812 21.6452 141.38L23.65 160.758H23.638Z" fill="#2A6498"/>
<path d="M21.7772 161.262C22.8097 163.816 23.7461 167.065 26.3031 168.54C27.3716 169.164 28.6561 169.356 29.8567 169.584C31.4893 169.883 33.134 170.087 34.7907 170.111C37.792 170.159 40.9253 169.764 43.5304 168.193C46.1355 166.622 48.1884 163.444 49.509 160.686C52.0901 155.314 52.3782 149.27 53.1945 143.466C53.9269 138.226 54.9953 132.29 53.5187 127.098C53.0025 125.299 52.006 123.464 50.3013 122.553C49.2569 121.989 47.9723 121.858 46.8078 121.798C43.2783 121.594 39.6528 122.145 36.2674 123.105C27.8158 125.515 19.7724 131.511 19.7604 141.056C19.7604 144.402 20.3966 147.819 20.7328 151.129L21.7772 161.262C21.9333 162.76 25.6549 161.897 25.4868 160.266L23.662 142.615C23.3619 139.749 23.59 136.907 24.8745 134.269C26.4592 131.007 29.2684 128.609 32.4858 127.026C35.487 125.563 38.7644 124.676 42.0538 124.34C43.4584 124.196 44.4909 124.148 45.7994 124.256C46.0635 124.28 46.3276 124.304 46.5797 124.34C46.9039 124.388 46.6398 124.34 46.5797 124.34C46.7118 124.364 46.8318 124.4 46.9639 124.424C47.6002 124.568 47.3 124.4 47.7802 124.771C51.1177 127.398 50.5654 133.261 50.2653 136.979C49.8691 142.039 49.1368 147.16 48.3565 152.172C47.8643 155.29 47.12 158.36 45.6313 161.166C44.1427 163.972 42.39 166.73 39.2326 167.401C36.4234 168.001 33.3261 167.629 30.5529 166.993C27.4316 166.274 26.5673 162.928 25.4868 160.278C24.8745 158.767 21.201 159.847 21.7772 161.274V161.262Z" fill="#2A6498"/>
<path d="M126.882 240.993C130.591 237.144 132.392 232.803 134.445 227.826C139.607 215.283 145.009 202.896 149.968 190.269" fill="#3D86C7"/>
<path d="M128.406 241.425C131.192 238.487 133.148 235.033 134.769 231.352C136.678 226.987 138.431 222.55 140.279 218.161C144.157 208.928 148.059 199.706 151.732 190.389C152.453 188.542 148.755 188.794 148.227 190.137C144.637 199.275 140.808 208.316 137.002 217.37C135.177 221.723 133.413 226.1 131.552 230.44C129.967 234.122 128.142 237.635 125.357 240.573C124.781 241.185 125.009 241.88 125.777 242.132C126.606 242.408 127.806 242.06 128.394 241.425H128.406Z" fill="#2A6498"/>
<path d="M149.944 313.577C171.757 296.981 190.737 276.692 205.815 253.824L149.944 313.577Z" fill="#3D86C7"/>
<path d="M151.372 313.649C168.539 300.567 183.966 285.302 197.148 268.202C200.833 263.429 204.327 258.525 207.652 253.5C208.036 252.912 206.307 253.08 206.163 253.104C205.443 253.224 204.423 253.488 203.99 254.136C192.346 271.751 178.42 287.832 162.633 301.862C158.083 305.915 153.377 309.788 148.527 313.493C147.939 313.937 148.071 314.225 148.755 314.345C149.499 314.477 150.772 314.105 151.372 313.637V313.649Z" fill="#2A6498"/>
<path d="M224.807 263.981C225.564 262.853 226.44 261.81 227.412 260.875L224.807 263.981Z" fill="#3D86C7"/>
<path d="M226.56 264.137C226.704 263.921 226.86 263.705 227.016 263.489L226.788 263.801C227.436 262.925 228.157 262.098 228.949 261.343C229.189 261.115 229.357 260.719 229.273 260.383C229.189 260.047 228.829 259.808 228.517 259.724C227.604 259.472 226.572 259.772 225.9 260.431C224.831 261.462 223.895 262.614 223.067 263.849C222.886 264.125 222.922 264.532 223.115 264.784C223.343 265.072 223.799 265.216 224.147 265.24C224.639 265.276 225.167 265.192 225.612 264.976L226.02 264.736C226.248 264.58 226.44 264.388 226.572 264.149L226.56 264.137Z" fill="#2A6498"/>
<path d="M339.552 201.673C343.153 199.095 342.289 192.991 338.832 190.233C335.374 187.463 330.5 187.319 326.13 188.039C321.76 188.758 317.474 190.233 313.045 190.233C346.635 177.366 372.782 149.726 405.988 135.888L339.54 201.673H339.552Z" fill="#DFEEF5"/>
<path d="M87.1569 100.573L126.618 79.7794C129.103 78.4723 131.612 77.1413 133.773 75.5224C136.246 73.6637 138.323 70.9657 137.17 68.5554C135.718 65.5215 130.231 65.0778 126.089 66.0252C110.711 69.5627 101.851 84.3721 86.0165 85.907C83.2793 86.1709 80.4221 86.015 77.841 86.8064C75.2599 87.5978 73.051 89.8762 74.1434 91.7829C74.4556 92.3225 74.9958 92.7662 75.392 93.2698C77.1447 95.4882 75.8602 98.5821 73.3751 100.489C70.8901 102.395 67.4926 103.379 64.2272 104.302L68.9092 103.666L87.181 100.573H87.1569Z" fill="#DFEEF5"/>
<path d="M119.679 27.5444C116.209 27.8562 107.95 25.2781 104.48 25.5898C113.604 23.8151 123.172 19.75 132.8 13.5504C136.798 10.9722 145.814 10.8523 149.295 11.4519L119.679 27.5444Z" fill="#DFEEF5"/>
<path d="M286.898 307.869C285.829 307.869 266.477 316.024 266.477 316.024L216.044 278.418L328.459 217.574L375.159 264.76L286.898 307.869Z" fill="#DFEEF5"/>
<path d="M286.862 306.538C285.469 306.622 284.028 307.39 282.744 307.881C280.391 308.793 278.062 309.74 275.733 310.699C272.359 312.079 268.998 313.482 265.637 314.897L267.581 315.064L250.522 302.341L223.355 282.088L217.16 277.471L216.884 279.57L228.073 273.514L254.94 258.968L287.438 241.377L315.422 226.231L324.69 221.207C326.106 220.44 327.799 219.78 329.095 218.821C329.155 218.773 329.228 218.749 329.288 218.713L327.343 218.545L343.141 234.506L368.304 259.928L374.054 265.731L374.331 263.633L344.498 278.203L296.958 301.418L286.069 306.742C284.196 307.654 286.117 309.8 287.738 309.009L317.571 294.439L365.111 271.223L375.999 265.899C376.924 265.444 376.924 264.46 376.275 263.801L360.477 247.84L335.314 222.418L329.564 216.614C329.107 216.159 328.159 216.159 327.619 216.446L316.43 222.502L289.563 237.048L257.065 254.639L229.081 269.785C224.531 272.243 219.873 274.581 215.407 277.183C215.347 277.219 215.275 277.255 215.215 277.291C214.423 277.723 214.135 278.79 214.939 279.39L242.191 299.715L259.49 312.618L264.46 316.324C264.748 316.539 265.024 316.779 265.324 316.971C266.261 317.547 266.993 317.295 267.894 316.923C271.339 315.472 274.784 314.045 278.254 312.63C280.235 311.827 282.216 311.023 284.208 310.244C284.881 309.98 285.529 309.728 286.213 309.488C286.453 309.404 286.693 309.344 286.922 309.249C287.126 309.177 287.606 309.165 286.934 309.201C288.938 309.081 288.89 306.407 286.874 306.538H286.862Z" fill="#2A6498"/>
<path d="M365.075 255.275C350.861 232.443 314.005 251.162 323.741 276.092H323.801C325.086 279.725 327.463 283.023 330.344 285.577L330.284 285.601C349.624 303.373 380.033 276.836 365.075 255.275ZM331.352 277.579C318.843 259.292 348.003 239.998 359.924 258.692C372.278 276.895 343.297 296.142 331.352 277.579Z" fill="#2A6498"/>
<path d="M366.575 254.292C351.125 229.517 311.196 250.19 322.205 277.075C314.857 284.774 264.808 300.771 284.761 313.721C296.862 315.724 316.85 292.125 328.759 286.645C349.444 306.359 382.818 277.735 366.575 254.292ZM287.978 310.64C271.711 300.099 316.862 285.517 322.925 278.718C323.453 279.833 324.065 280.913 324.714 281.968C325.554 283.155 326.478 284.306 327.475 285.362C315.698 290.83 299.911 311.263 287.978 310.64ZM330.284 285.601L330.344 285.577C327.463 283.023 325.086 279.725 323.801 276.08H323.741C313.993 251.174 350.849 232.443 365.075 255.275C380.033 276.836 349.624 303.373 330.284 285.601Z" fill="#2A6498"/>
<path d="M327.475 285.361C315.698 290.83 299.911 311.263 287.978 310.64C271.711 300.099 316.862 285.517 322.925 278.718C323.453 279.833 324.065 280.913 324.714 281.968C325.554 283.155 326.478 284.306 327.475 285.361Z" fill="#2A6498"/>
<path d="M365.075 255.275C350.861 232.443 314.005 251.162 323.741 276.092H323.801C325.086 279.725 327.463 283.023 330.344 285.577L330.284 285.601C349.624 303.373 380.033 276.836 365.075 255.275ZM329.864 278.55C316.046 258.369 348.232 237.048 361.413 257.697C375.051 277.819 343.069 299.032 329.864 278.55Z" fill="#2A6498"/>
<path d="M280.103 319.873C287.042 324.154 288.398 328.819 310.055 315.736C313.789 313.481 316.658 311.311 319.96 308.469C321.04 307.546 322.024 306.502 323.201 305.687C326.502 303.385 326.995 292.616 325.242 288.491C323.909 285.361 322.289 282.352 320.416 279.51C319.023 277.411 316.994 275.181 314.497 275.528C313.453 275.672 311.736 277.135 311.412 277.879C310.896 279.078 311.568 280.433 312.228 281.56C314.293 285.074 315.206 288.791 317.258 292.317C318.003 293.576 318.591 299.559 317.21 299.068C316.466 298.804 315.47 296.358 314.833 294.655C313.501 291.081 309.299 278.718 302.684 274.761C301.544 274.077 300.739 274.497 299.515 275.025C296.574 276.284 307.474 296.178 306.502 297.845C304.485 297.845 298.422 276.788 294.521 278.802C293.824 279.162 293.104 280.361 293.008 281.14C292.372 286.261 294.377 291.177 295.745 296.154C296.117 297.509 296.49 298.876 297.15 300.111C297.942 301.586 299.107 302.845 299.827 304.356C300.547 305.867 296.742 306.742 295.841 305.123C293.596 301.046 291.7 296.777 290.187 292.377C289.419 290.158 288.494 287.616 286.297 286.788C285.769 286.585 285.157 286.513 284.665 286.788C283.908 287.208 283.764 288.203 283.776 289.067C283.812 291.801 284.557 294.463 285.205 297.113C286.561 302.725 286.669 307.534 287.03 313.302" fill="#F9BA72"/>
<path d="M13.0135 132.41C13.7338 134.604 15.4746 136.283 16.9272 138.082C21.5491 143.79 22.0053 150.085 25.991 156.249C27.8518 159.139 33.086 161.453 36.5195 161.525C38.3082 161.561 40.025 160.842 41.6576 160.122C43.2303 159.439 47.276 154.366 47.9003 152.844C49.0528 150.014 50.0252 139.713 50.2653 135.168C50.7335 126.234 48.8847 126.522 47.6842 120.371L12.9895 132.41H13.0135Z" fill="#EDA04C"/>
<path d="M126.882 117.876C139.031 122.637 146.162 151.812 140.904 175.076C135.994 196.792 129.391 211.11 100.831 205.726" fill="#3D86C7"/>
<path d="M125.381 118.656C131.672 121.21 135.021 128.777 137.038 134.748C140.039 143.586 141.12 153.131 140.736 162.437C140.399 170.903 138.551 179.417 135.754 187.403C133.749 193.111 130.867 198.903 125.789 202.476C118.958 207.273 109.738 206.314 102.007 204.875C101.215 204.731 99.9904 205.054 99.3901 205.582C98.8259 206.074 98.9099 206.434 99.6542 206.577C107.974 208.124 116.978 208.568 124.853 204.971C130.831 202.236 134.949 197.2 137.638 191.324C139.199 187.931 140.327 184.345 141.288 180.736C142.488 176.275 143.497 171.754 144.013 167.161C145.129 157.208 144.457 146.908 141.804 137.231C139.775 129.832 136.114 120.227 128.382 117.097C127.626 116.785 126.462 117.145 125.777 117.529C125.357 117.756 124.589 118.356 125.369 118.668L125.381 118.656Z" fill="#2A6498"/>
<path d="M225.263 220.715C207.34 208.784 191.181 196.696 191.181 196.696L225.263 220.715Z" fill="#3D86C7"/>
<path d="M226.992 220.032C215.431 212.321 204.038 204.335 192.91 196.013C191.973 195.317 188.624 196.768 189.44 197.38C200.569 205.702 211.962 213.688 223.523 221.399C224.195 221.855 225.239 221.603 225.948 221.327C226.2 221.219 227.64 220.476 226.992 220.032Z" fill="#2A6498"/>
<path d="M266.417 316.335C265 324.034 272.852 330.39 279.202 332.812C282.168 333.951 285.517 334.802 288.674 334.179C291.832 333.555 294.785 332.752 297.678 331.565C301.16 330.138 305.073 328.123 306.742 324.538C307.066 323.842 303.537 324.142 303.068 325.149C301.844 327.787 299.167 329.37 296.586 330.473C294.389 331.421 291.616 332.2 289.575 332.608C289.094 332.704 288.542 332.896 288.05 332.884C289.01 332.896 287.702 332.716 287.498 332.68C286.922 332.596 286.357 332.5 285.805 332.368C284.725 332.128 283.668 331.828 282.624 331.445C279.058 330.15 275.757 327.967 273.296 325.077C271.147 322.559 269.454 319.106 270.078 315.724C270.258 314.741 266.585 315.352 266.405 316.335H266.417Z" fill="#2A6498"/>
<path d="M47.9243 124.843C51.7059 126.606 55.7757 128.141 59.1851 130.599C60.3376 131.439 61.4901 132.47 62.0183 133.837C62.6906 135.564 62.4745 137.758 62.4625 139.569C62.4265 147.567 60.9499 155.662 57.7805 163.036C55.5356 168.277 52.2342 174.128 47.144 177.09C45.5233 178.038 43.7466 178.577 41.8858 178.194C40.8894 177.99 39.977 177.522 39.1486 176.958C37.2398 175.663 35.415 174.164 33.7343 172.582C30.1088 169.14 25.6429 163.732 25.775 158.575C25.823 156.681 22.0654 157.256 22.0294 158.875C21.8973 164.092 25.4748 169.14 28.8843 172.737C33.3982 177.498 39.1246 182.666 46.1116 180.376C52.2942 178.349 56.628 172.617 59.5693 167.101C63.651 159.451 65.7399 150.661 66.1481 142.039C66.2681 139.461 66.3401 136.787 66.04 134.209C65.8359 132.398 64.7915 130.899 63.4829 129.7C59.7854 126.282 54.5752 124.52 50.0853 122.433C48.5846 121.738 45.8114 123.896 47.9363 124.879L47.9243 124.843Z" fill="#2A6498"/>
<path d="M38.1041 137.422C40.3611 136.823 42.9182 135.204 42.63 132.878C42.534 132.074 42.0778 131.307 42.1739 130.491C42.3539 128.873 44.3588 128.333 45.7514 127.494C47.6602 126.342 48.7526 124.136 49.0288 121.929C49.3049 119.723 48.8847 117.481 48.3565 115.322C48.2124 114.747 48.0684 114.135 48.2364 113.559C48.4525 112.852 49.0888 112.384 49.677 111.929C53.0265 109.29 55.5355 104.997 54.5391 100.86C54.263 99.7212 53.7348 98.5581 54.0229 97.4309C54.347 96.1358 55.6196 95.3204 56.3759 94.2171C57.5524 92.5024 57.3723 90.128 56.4119 88.2933C55.4515 86.4586 53.8308 85.0556 52.1621 83.8205C43.7465 77.5969 33.3621 74.611 23.0498 72.8363C20.2166 72.3447 17.2153 71.9609 14.5381 72.9922C10.4564 74.5751 8.15144 79.6834 9.67609 83.7725C9.88018 84.3242 10.1443 84.8997 10.0242 85.4753C9.77213 86.6265 8.2835 86.8783 7.23906 87.406C5.2102 88.4372 4.5139 90.9435 4.08172 93.1739C3.73357 94.9846 3.40943 96.8553 3.75758 98.666C4.10573 100.477 5.27022 102.251 7.02297 102.803C3.68555 104.182 1.2005 107.432 0.744305 111.017C0.288112 114.591 1.87278 118.368 4.76601 120.538C2.66512 120.898 0.828341 122.529 0.228087 124.58C-0.720315 127.805 1.40459 131.307 4.32182 132.974C7.23906 134.64 30.1448 139.545 38.0921 137.422H38.1041Z" fill="#F9BA72"/>
<path d="M20.5047 87.7417C25.5949 90.4398 31.0092 92.4304 36.6395 93.6415C39.4127 94.2411 42.1859 94.5889 45.0071 94.8767C46.5197 95.0326 48.0684 95.2244 49.473 95.848C50.5534 96.3396 51.4058 97.1311 52.2942 97.8985C52.9304 98.4381 55.4755 97.3829 54.8993 96.8912C53.0625 95.3323 51.3938 94.3131 48.9688 93.8694C45.9435 93.3178 42.8582 93.2218 39.8329 92.6463C33.8664 91.4951 28.1159 89.3966 22.7617 86.5546C22.1014 86.2068 19.5323 87.2381 20.5047 87.7537V87.7417Z" fill="#F8AB23"/>
<path d="M19.4603 104.158C24.6345 106.137 29.9287 107.839 35.307 109.171C36.6756 109.506 38.0441 109.83 39.4247 110.13C40.8053 110.43 42.2819 110.514 43.5665 110.957C45.0311 111.461 46.2796 112.708 47.5282 113.595C48.3205 114.159 50.8656 113.008 49.7251 112.192C48.4405 111.281 47.192 110.07 45.6914 109.506C44.5749 109.087 43.3024 109.003 42.1379 108.763C40.7573 108.475 39.3887 108.175 38.0201 107.839C32.4618 106.508 26.9995 104.806 21.6572 102.755C21.0209 102.515 20.2406 102.611 19.6884 102.995C19.3642 103.223 18.812 103.906 19.4723 104.158H19.4603Z" fill="#F8AB23"/>
<path d="M14.2861 120.502C18.98 122.493 23.8541 124.028 28.8482 125.059C33.3261 125.983 38.3202 125.827 41.8377 129.172C42.534 129.832 45.1631 128.789 44.4188 128.093C40.9734 124.819 36.5075 124.688 32.0776 123.86C26.7233 122.877 21.5131 121.282 16.507 119.159C15.9067 118.908 15.0784 119.075 14.5382 119.423C14.202 119.639 13.6618 120.227 14.2861 120.491V120.502Z" fill="#F8AB23"/>
<path d="M216.8 55.5446C211.314 50.0285 204.315 48.5415 197.268 51.6833C195.323 52.7266 193.726 49.8366 195.659 48.7454C201.842 45.4238 208.528 44.6203 214.831 48.0379C216.8 49.0452 218.601 50.2923 220.257 51.6833C222.898 54.0336 219.429 57.9189 216.788 55.5446H216.8Z" fill="#2A6498"/>
<path d="M233.619 53.1702C237.052 50.0884 244.82 48.4216 248.697 51.1677C250.342 52.6306 248.205 55.1129 246.5 53.7099C246.488 53.7458 246.5 53.7698 246.5 53.7698C246.464 53.7698 246.392 53.7698 246.344 53.7698C244.039 53.6859 241.506 54.5732 239.598 55.8204C238.901 56.288 238.325 56.8276 238.013 57.3193C237.1 58.7463 235.204 59.178 233.775 58.2666C231.938 57.1514 231.902 54.4294 233.607 53.1702H233.619Z" fill="#2A6498"/>
<path d="M228.253 102.851C229.609 102.359 230.798 103.93 229.921 105.093C228.397 107.108 226.38 108.943 223.115 109.087C220.425 109.206 217.46 107.48 215.143 105.693C213.919 104.746 214.783 102.815 216.296 103.103C219.789 103.774 224.039 104.386 225.66 103.786L228.253 102.839V102.851Z" fill="#EF914B"/>
<path d="M217.136 63.4949C216.968 63.8667 215.851 66.7086 215.851 66.7086C215.851 66.7086 213.859 62.044 213.042 61.6003C208.781 59.3099 202.502 59.5737 199.933 62.2358" stroke="#2A6498" stroke-width="2.33" stroke-linecap="round" stroke-linejoin="round"/>
<path d="M206.282 67.5151C208.329 67.3233 209.816 65.3397 209.604 63.0847C209.392 60.8296 207.562 59.157 205.515 59.3488C203.469 59.5405 201.982 61.5241 202.194 63.7792C202.405 66.0342 204.236 67.7069 206.282 67.5151Z" fill="#2A6498"/>
<path d="M239.478 68.4429C241.524 68.2512 243.011 66.2676 242.8 64.0125C242.588 61.7575 240.757 60.0848 238.711 60.2766C236.664 60.4684 235.177 62.452 235.389 64.707C235.601 66.9621 237.431 68.6347 239.478 68.4429Z" fill="#2A6498"/>
<path d="M232.791 63.7467L234.315 67.8119C234.315 67.8119 234.651 62.6915 235.504 62.3078C239.862 60.3412 243.871 61.5883 246.873 63.339" stroke="#2A6498" stroke-width="2.33" stroke-linecap="round" stroke-linejoin="round"/>
<path d="M168.623 54.1056C174.902 55.5566 181.169 57.0675 187.447 58.5664C188.504 58.8183 189.512 59.1181 190.605 59.1061C192.466 59.0821 194.314 59.0701 196.175 59.0461C203.438 58.9742 210.689 58.9262 217.952 58.9382C226.416 58.9382 234.844 59.118 243.307 58.6504C245.24 58.5425 247.185 58.4106 249.13 58.3866C250.03 58.3746 251.483 58.1827 252.311 58.6384C252.527 58.7583 252.419 58.6264 252.491 58.9502C252.695 59.8975 252.515 61.1326 252.491 62.1039C252.455 63.6029 252.359 65.1258 252.047 66.6007C251.639 68.5314 250.75 70.1982 248.829 70.9297C246.152 71.937 242.827 71.9729 240.018 72.0209C237.209 72.0689 235.06 70.5939 233.679 68.0757C232.623 66.1331 232.046 63.7707 230.51 62.1159C228.889 60.3772 226.32 60.1253 224.111 60.7969C222.046 61.4324 220.834 62.9913 220.017 64.8979C219.261 66.6607 218.673 68.6393 217.1 69.8744C214.699 71.7571 211.181 71.2055 208.348 71.1695C205.683 71.1455 202.874 71.2295 200.305 70.414C197.568 69.5387 195.791 67.4282 194.879 64.7541C194.182 62.7275 193.918 60.593 193.786 58.4705C193.714 57.2953 190.857 57.9429 190.941 59.226C191.169 62.8234 191.805 66.9005 194.398 69.6226C196.343 71.6731 199.044 72.5245 201.782 72.8603C204.831 73.232 207.988 73.1721 211.061 73.1721C214.135 73.1721 217.568 72.5365 219.873 70.2342C221.446 68.6633 222.022 66.5887 222.934 64.6341C223.679 63.0273 224.915 61.8281 226.824 62.5716C228.733 63.3151 229.561 66.217 230.378 67.9558C231.518 70.3661 233.031 72.5006 235.648 73.4359C238.769 74.5391 242.755 73.9155 245.972 73.4479C248.433 73.0881 251.074 72.4646 252.851 70.5939C254.628 68.7232 255.072 66.0491 255.252 63.5909C255.312 62.7035 255.348 61.8041 255.348 60.9048C255.348 60.0054 255.54 58.8782 255.3 58.0508C255.06 57.2234 254.244 56.8996 253.475 56.7198C250.222 55.9283 246.416 56.5759 243.115 56.7557C238.097 57.0315 233.103 57.1275 228.085 57.0675C220.221 56.9716 212.346 57.0075 204.483 57.0675C201.241 57.0915 197.988 57.1155 194.747 57.1514C193.714 57.1514 192.682 57.1754 191.661 57.1874C191.481 57.1874 190.593 57.0675 190.449 57.1994C190.629 57.0315 191.481 57.3913 190.773 57.1754C190.389 57.0555 189.993 56.9836 189.608 56.8996C188.276 56.5759 186.931 56.2641 185.599 55.9403C181.985 55.0769 178.384 54.2135 174.77 53.3621C173.269 53.0144 171.769 52.6546 170.28 52.3069C169.62 52.151 168.719 52.2829 168.275 52.8465C167.915 53.3022 167.939 53.9497 168.611 54.1176L168.623 54.1056Z" fill="#EF7C36"/>
<path d="M146.906 353.173C117.026 343.916 99.126 332.728 84.3357 327.404C81.7306 323.075 84.1797 317.607 86.4246 313.062C94.9602 294.439 95.5125 295.29 93.9398 274.545C92.3191 264.844 99.6782 247.636 98.9219 237.827L98.9819 223.054C98.9819 223.054 126.882 248.967 128.082 274.401C128.779 288.959 121.744 304.62 138.419 320.233C142.44 323.998 142.032 333.603 137.986 340.247C137.302 341.374 149.307 352.658 146.906 353.161V353.173Z" fill="#2A6498"/>
</g>
<defs>
<clipPath id="clip0_1_1910">
<rect width="406" height="372" fill="white"/>
</clipPath>
</defs>
</svg>
